<svg width="308" height="49" viewBox="0 0 308 49" fill="none" xmlns="http://www.w3.org/2000/svg">
<path d="M71.7763 24.1603C71.7801 22.6554 72.0506 21.1627 72.5756 19.7501C73.0966 18.2988 73.8915 16.9585 74.9181 15.8001C75.9765 14.6203 77.2619 13.6605 78.6995 12.9768C80.2945 12.2282 82.043 11.8544 83.8085 11.8845C85.8452 11.8249 87.8566 12.3421 89.6056 13.3752C91.147 14.3013 92.3778 15.6561 93.1437 17.2702L91.1835 18.4517C90.8159 17.6844 90.3148 16.9868 89.703 16.3909C89.1463 15.8475 88.5144 15.3849 87.8262 15.017C87.1701 14.6718 86.4681 14.4198 85.7409 14.2682C85.0549 14.1266 84.3563 14.053 83.6556 14.0484C82.2575 14.0183 80.8732 14.3273 79.624 14.9483C78.4877 15.5216 77.4842 16.3215 76.6767 17.2977C75.875 18.281 75.2667 19.4041 74.8834 20.6088C74.4784 21.7951 74.2717 23.0387 74.2717 24.2908C74.2659 25.6302 74.5159 26.9586 75.0085 28.2064C75.4734 29.4144 76.1485 30.5326 77.0034 31.5106C77.8418 32.4615 78.8624 33.239 80.0063 33.7982C81.1779 34.3673 82.4683 34.6567 83.7737 34.6431C84.5115 34.6424 85.2465 34.5548 85.9633 34.3821C86.7253 34.2065 87.4596 33.9291 88.1459 33.5577C88.8536 33.168 89.5077 32.6901 90.0922 32.1357C90.7079 31.54 91.2137 30.8426 91.5867 30.0749L93.672 31.1122C93.2726 32.0318 92.6912 32.8633 91.962 33.5577C91.2253 34.259 90.395 34.8576 89.4944 35.3369C87.6945 36.2951 85.686 36.8067 83.6417 36.8276C81.9761 36.8462 80.3307 36.4668 78.8454 35.7216C77.4117 35.0081 76.1302 34.0285 75.071 32.8364C74.0183 31.6398 73.1898 30.2673 72.6243 28.7834C72.0566 27.307 71.7691 25.7397 71.7763 24.1603Z" fill="#5DD987"/>
<path d="M102.118 36.9713C101.284 36.9796 100.456 36.8328 99.6777 36.5386C98.9527 36.2642 98.2856 35.8589 97.7106 35.3433C97.1584 34.8447 96.7159 34.239 96.4108 33.5641C96.097 32.8731 95.9382 32.1232 95.945 31.3658C95.9382 30.6009 96.1348 29.8477 96.515 29.1814C96.9189 28.5051 97.4668 27.9238 98.1207 27.4777C98.8715 26.9645 99.7063 26.5834 100.588 26.3511C101.612 26.0777 102.669 25.9437 103.73 25.9527C104.699 25.9546 105.667 26.0373 106.622 26.2C107.511 26.3374 108.382 26.5677 109.222 26.8869V25.2314C109.258 24.5396 109.153 23.8477 108.915 23.1964C108.676 22.5451 108.308 21.9477 107.831 21.4395C107.318 20.9616 106.71 20.5931 106.047 20.3567C105.383 20.1204 104.677 20.0213 103.973 20.0656C102.972 20.075 101.981 20.2635 101.047 20.622C99.9747 21.0219 98.9548 21.5477 98.0095 22.1882L97.1545 20.6082C99.2013 19.1574 101.637 18.3375 104.154 18.252C105.153 18.1966 106.153 18.3369 107.096 18.6646C108.04 18.9923 108.908 19.5011 109.652 20.1617C110.338 20.8519 110.869 21.6758 111.214 22.5807C111.559 23.4855 111.709 24.4515 111.654 25.4169V33.5778C111.654 34.2236 111.953 34.5464 112.544 34.5464V36.6073C112.239 36.6654 111.93 36.6998 111.62 36.7103C111.097 36.7439 110.581 36.5821 110.174 36.2569C109.997 36.1007 109.856 35.9089 109.76 35.6945C109.664 35.4801 109.616 35.248 109.618 35.0135L109.548 33.5916C108.706 34.6747 107.608 35.5378 106.351 36.1058C105.019 36.6922 103.575 36.9875 102.118 36.9713ZM102.694 35.1715C103.889 35.1856 105.073 34.9516 106.17 34.4846C107.129 34.1033 107.963 33.4688 108.582 32.6504C108.788 32.4562 108.951 32.2224 109.062 31.9635C109.164 31.7486 109.219 31.5142 109.222 31.2765V28.3501C108.404 28.0499 107.562 27.8201 106.705 27.6632C105.829 27.5032 104.941 27.4227 104.05 27.4228C102.587 27.358 101.137 27.7186 99.8793 28.4601C99.3898 28.7369 98.9833 29.1371 98.7012 29.6198C98.4192 30.1025 98.2716 30.6505 98.2736 31.2079C98.2701 31.7453 98.3839 32.2772 98.6073 32.7672C98.8312 33.2447 99.1476 33.6741 99.5387 34.0312C99.9455 34.3967 100.417 34.6855 100.929 34.883C101.494 35.0862 102.093 35.1841 102.694 35.1715Z" fill="#5DD987"/>
<path d="M123.075 36.972C121.631 36.974 120.196 36.742 118.828 36.285C117.511 35.8629 116.296 35.1805 115.255 34.2792L116.367 32.6854C117.326 33.4663 118.402 34.0944 119.558 34.5471C120.666 34.9689 121.845 35.181 123.033 35.1722C124.291 35.2351 125.54 34.9267 126.62 34.286C127.047 34.0222 127.397 33.6513 127.632 33.2109C127.868 32.7705 127.981 32.2764 127.961 31.7787C127.98 31.3301 127.853 30.8874 127.6 30.5147C127.322 30.1449 126.963 29.842 126.55 29.6285C125.993 29.3393 125.405 29.109 124.799 28.9416C124.104 28.7492 123.283 28.5431 122.359 28.3371C121.281 28.0829 120.357 27.8287 119.578 27.5745C118.896 27.3663 118.242 27.0756 117.632 26.709C117.151 26.4186 116.757 26.0058 116.492 25.5137C116.224 24.9592 116.095 24.3488 116.117 23.7345C116.099 22.9052 116.288 22.0844 116.666 21.3439C117.024 20.6633 117.538 20.0751 118.167 19.6266C118.837 19.1605 119.586 18.8162 120.378 18.6099C121.256 18.3721 122.164 18.2542 123.075 18.2595C124.405 18.2439 125.725 18.477 126.967 18.9465C128.029 19.3281 128.992 19.9355 129.789 20.7257L128.608 22.0996C127.902 21.3946 127.041 20.8608 126.092 20.5402C125.1 20.1938 124.057 20.0172 123.005 20.0181C122.404 20.0161 121.805 20.0806 121.219 20.2105C120.704 20.3257 120.215 20.5304 119.773 20.815C119.366 21.0852 119.029 21.4479 118.793 21.8729C118.548 22.3365 118.426 22.8542 118.438 23.3773C118.421 23.7856 118.507 24.1917 118.689 24.5588C118.884 24.8876 119.168 25.1563 119.509 25.3351C119.965 25.5886 120.451 25.7869 120.955 25.9259C121.539 26.0976 122.241 26.2762 123.075 26.4617C124.263 26.7365 125.313 27.0181 126.217 27.2929C127.011 27.5194 127.772 27.8449 128.483 28.2615C129.078 28.5882 129.568 29.0755 129.894 29.6666C130.22 30.2577 130.369 30.9283 130.325 31.6001C130.351 32.3666 130.185 33.1275 129.842 33.8154C129.498 34.5033 128.989 35.0968 128.358 35.5431C126.801 36.5758 124.946 37.0775 123.075 36.972Z" fill="#5DD987"/>
<path d="M149.927 36.6283H147.494V26.5508C147.494 24.4945 147.132 22.9603 146.409 21.9482C146.051 21.4475 145.569 21.0449 145.01 20.7782C144.451 20.5115 143.832 20.3893 143.212 20.4232C142.509 20.4246 141.813 20.5598 141.161 20.8216C140.473 21.0897 139.829 21.4578 139.25 21.9139C138.654 22.3762 138.129 22.9224 137.693 23.5351C137.253 24.1639 136.922 24.8602 136.713 25.5959V36.6283H134.287V11.3486H136.713V22.6695C137.421 21.3414 138.484 20.2297 139.785 19.4546C141.062 18.6779 142.533 18.2687 144.032 18.2731C144.97 18.2439 145.901 18.442 146.743 18.8501C147.474 19.2209 148.1 19.7664 148.564 20.437C149.067 21.1828 149.419 22.018 149.6 22.8962C149.825 23.9369 149.935 24.9988 149.927 26.0631V36.6283Z" fill="#5DD987"/>
<path d="M153.673 24.1601C153.678 22.6534 153.956 21.1597 154.494 19.7499C155.034 18.2926 155.853 16.9516 156.906 15.8C157.991 14.6117 159.308 13.6515 160.777 12.9766C162.4 12.2406 164.17 11.8744 165.956 11.905C168.032 11.8456 170.084 12.362 171.878 13.3957C173.457 14.32 174.742 15.6619 175.59 17.2701L172.448 19.3309C172.127 18.6398 171.693 18.006 171.162 17.4555C170.685 16.968 170.131 16.5598 169.522 16.2465C168.936 15.9485 168.312 15.7335 167.666 15.6076C167.055 15.4813 166.433 15.4168 165.81 15.4153C164.605 15.3917 163.412 15.6581 162.334 16.1915C161.357 16.6936 160.499 17.3962 159.818 18.2524C159.134 19.112 158.613 20.0873 158.282 21.1307C157.94 22.1573 157.764 23.2306 157.761 24.3113C157.753 25.4833 157.96 26.647 158.372 27.746C158.755 28.7998 159.33 29.7753 160.068 30.6243C160.789 31.4434 161.668 32.1115 162.654 32.589C163.672 33.0936 164.797 33.3503 165.935 33.3378C166.579 33.3349 167.22 33.2589 167.846 33.1111C168.508 32.9582 169.145 32.713 169.737 32.3829C170.356 32.0436 170.923 31.6179 171.419 31.1189C171.946 30.5849 172.374 29.9642 172.684 29.2848L176.007 31.1189C175.603 32.0376 175.019 32.8685 174.29 33.5645C173.547 34.2709 172.707 34.8699 171.795 35.3437C169.943 36.3028 167.887 36.8137 165.796 36.8343C164.109 36.8496 162.441 36.4706 160.93 35.7283C159.478 35.0118 158.176 34.0306 157.093 32.8363C156.021 31.6438 155.173 30.2711 154.591 28.7833C153.993 27.3131 153.682 25.7445 153.673 24.1601Z" fill="#1070B0"/>
<path d="M187.587 36.9715C186.221 36.9923 184.865 36.7326 183.605 36.209C182.472 35.7248 181.446 35.0245 180.588 34.1482C179.746 33.2936 179.085 32.2826 178.642 31.1737C177.743 28.8799 177.743 26.337 178.642 24.0432C179.075 22.9232 179.738 21.9036 180.588 21.0481C181.451 20.1711 182.481 19.4708 183.618 18.9872C186.148 17.9704 188.979 17.9704 191.508 18.9872C192.647 19.4708 193.679 20.171 194.545 21.0481C195.396 21.9036 196.058 22.9232 196.492 24.0432C197.4 26.3472 197.4 28.904 196.492 31.208C196.055 32.3262 195.393 33.3451 194.545 34.2031C193.678 35.0784 192.646 35.7784 191.508 36.264C190.264 36.7646 188.93 37.0055 187.587 36.9715ZM182.027 27.6222C182.016 28.4494 182.16 29.2714 182.451 30.0471C182.717 30.7566 183.118 31.4093 183.632 31.9705C184.127 32.5106 184.728 32.9454 185.398 33.2483C186.088 33.5563 186.837 33.7156 187.594 33.7156C188.352 33.7156 189.101 33.5563 189.791 33.2483C190.464 32.9409 191.065 32.4988 191.557 31.9499C192.067 31.3823 192.465 30.7252 192.731 30.0127C193.301 28.4593 193.301 26.7575 192.731 25.2041C192.466 24.4853 192.067 23.8214 191.557 23.2463C191.057 22.6891 190.447 22.24 189.763 21.9274C189.074 21.6151 188.325 21.4557 187.567 21.4602C186.818 21.4584 186.079 21.6252 185.405 21.948C184.734 22.2652 184.134 22.7112 183.639 23.26C182.572 24.4675 181.989 26.019 181.999 27.6222H182.027Z" fill="#1070B0"/>
<path d="M200.725 11.3486H204.652V31.4006C204.621 31.9733 204.812 32.5361 205.187 32.9738C205.382 33.169 205.617 33.321 205.876 33.4193C206.135 33.5176 206.412 33.5601 206.689 33.5439C206.997 33.5355 207.303 33.4894 207.599 33.4065C207.938 33.3104 208.264 33.2073 208.58 33.0974L209.15 36.0719C208.496 36.3496 207.813 36.5525 207.113 36.6764C206.427 36.8167 205.728 36.8926 205.028 36.9031C204.456 36.9381 203.883 36.8614 203.342 36.6776C202.8 36.4937 202.301 36.2062 201.872 35.8315C201.481 35.4277 201.179 34.9482 200.985 34.4232C200.791 33.8982 200.71 33.3391 200.746 32.7814L200.725 11.3486Z" fill="#1070B0"/>
<path d="M211.471 11.3486H215.399V31.4006C215.364 31.9738 215.555 32.5379 215.934 32.9738C216.127 33.1685 216.361 33.3201 216.619 33.4185C216.876 33.5168 217.152 33.5596 217.428 33.5439C217.736 33.5365 218.042 33.4904 218.339 33.4065C218.686 33.3104 219.034 33.2073 219.326 33.0974L219.896 36.0719C219.243 36.3496 218.559 36.5525 217.859 36.6764C217.173 36.8167 216.475 36.8926 215.774 36.9031C215.202 36.9385 214.629 36.862 214.088 36.6781C213.546 36.4942 213.047 36.2065 212.618 35.8315C212.227 35.4277 211.925 34.9482 211.731 34.4232C211.537 33.8982 211.456 33.3391 211.492 32.7814L211.471 11.3486Z" fill="#1070B0"/>
<path d="M230.642 36.9717C229.284 36.9897 227.937 36.7374 226.68 36.2298C225.546 35.7707 224.517 35.0907 223.655 34.2303C222.793 33.37 222.115 32.3468 221.661 31.2219C221.194 30.0785 220.958 28.8555 220.966 27.6223C220.959 26.3847 221.195 25.1575 221.661 24.009C222.111 22.886 222.779 21.8613 223.629 20.9932C224.49 20.1045 225.529 19.4027 226.68 18.9324C227.948 18.4206 229.307 18.166 230.677 18.1836C232.03 18.1642 233.372 18.4239 234.618 18.9461C235.749 19.4184 236.774 20.1071 237.635 20.9726C238.469 21.8132 239.119 22.8139 239.546 23.9128C239.989 25.0335 240.213 26.2269 240.207 27.43C240.207 27.7047 240.207 27.9658 240.172 28.2062C240.137 28.4466 240.123 28.6527 240.102 28.8176H225.144C225.199 29.574 225.399 30.3131 225.735 30.9952C226.043 31.6257 226.465 32.1959 226.979 32.6782C227.488 33.1465 228.082 33.5148 228.731 33.7636C229.383 34.0186 230.079 34.1491 230.781 34.1483C231.306 34.1495 231.829 34.0849 232.338 33.956C232.826 33.8359 233.294 33.6486 233.728 33.3995C234.149 33.1616 234.533 32.8655 234.868 32.5202C235.192 32.1855 235.457 31.8002 235.654 31.3799L239.011 32.3142C238.318 33.7253 237.201 34.8911 235.814 35.6527C234.242 36.5456 232.455 37.0013 230.642 36.9717ZM236.335 26.2072C236.273 25.4725 236.076 24.7552 235.751 24.0914C235.446 23.4724 235.027 22.9154 234.514 22.4496C234.006 21.9896 233.414 21.6304 232.769 21.3917C232.103 21.1403 231.396 21.0122 230.684 21.0139C229.971 21.0093 229.263 21.1375 228.599 21.3917C227.961 21.6361 227.374 21.9947 226.868 22.4496C226.357 22.911 225.946 23.4694 225.658 24.0914C225.342 24.7579 225.147 25.474 225.081 26.2072H236.335Z" fill="#1070B0"/>
<path d="M242.208 27.5539C242.207 26.3213 242.443 25.0997 242.904 23.9543C243.344 22.8436 244.005 21.8319 244.85 20.9798C245.718 20.1079 246.756 19.4186 247.901 18.9533C249.172 18.4415 250.533 18.1868 251.905 18.2045C253.646 18.1588 255.367 18.584 256.882 19.4341C258.209 20.2067 259.281 21.3424 259.968 22.704L256.152 23.8856C255.718 23.1399 255.089 22.5231 254.331 22.0995C253.557 21.6706 252.682 21.4503 251.794 21.4606C251.048 21.4548 250.31 21.6047 249.627 21.9007C248.944 22.1967 248.332 22.632 247.832 23.178C247.322 23.7382 246.923 24.3884 246.657 25.0946C246.363 25.8815 246.217 26.715 246.226 27.5539C246.217 28.3873 246.368 29.2149 246.671 29.9925C246.948 30.715 247.361 31.3793 247.887 31.9503C248.388 32.4982 248.996 32.9399 249.674 33.2487C250.348 33.5617 251.084 33.7213 251.829 33.7158C252.313 33.716 252.794 33.6513 253.261 33.5234C253.718 33.4073 254.155 33.2268 254.56 32.9876C254.939 32.7702 255.287 32.5046 255.596 32.1976C255.88 31.9198 256.105 31.588 256.256 31.2222L260.114 32.335C259.455 33.7399 258.369 34.9068 257.007 35.6736C255.45 36.5679 253.671 37.0174 251.87 36.9719C250.511 36.99 249.162 36.7304 247.908 36.2094C246.76 35.7313 245.72 35.0305 244.85 34.1486C243.13 32.3755 242.178 30.0098 242.195 27.5539H242.208Z" fill="#1070B0"/>
<path d="M273.766 35.7215C273.085 36.0167 272.389 36.2758 271.681 36.4977C270.77 36.7909 269.817 36.937 268.859 36.9305C268.268 36.9335 267.681 36.8525 267.114 36.6901C266.59 36.5386 266.1 36.2917 265.668 35.9619C265.243 35.623 264.905 35.19 264.681 34.6979C264.429 34.1 264.309 33.4562 264.327 32.8088V21.4604H261.866V18.5478H264.327V12.5645H268.254V18.5478H272.327V21.4879H268.254V31.5998C268.256 31.8592 268.313 32.1153 268.42 32.3518C268.528 32.5883 268.684 32.8001 268.88 32.9737C269.278 33.2737 269.769 33.4267 270.27 33.4065C270.806 33.4057 271.337 33.3127 271.841 33.1317C272.341 32.9485 272.71 32.7974 272.946 32.6783L273.766 35.7215Z" fill="#1070B0"/>
<path d="M284.408 36.9717C283.041 36.9938 281.685 36.7341 280.425 36.2092C279.299 35.7438 278.28 35.0577 277.429 34.1922C276.579 33.3268 275.914 32.3 275.476 31.1739C274.577 28.8682 274.577 26.3146 275.476 24.009C275.915 22.8917 276.577 21.8731 277.422 21.0139C278.29 20.1383 279.322 19.4383 280.46 18.9531C282.989 17.9362 285.82 17.9362 288.349 18.9531C289.489 19.4366 290.521 20.1368 291.387 21.0139C292.237 21.8832 292.899 22.9138 293.333 24.0433C294.233 26.349 294.233 28.9026 293.333 31.2082C292.891 32.3238 292.23 33.3417 291.387 34.2033C290.519 35.0786 289.488 35.7785 288.349 36.2641C287.1 36.7675 285.757 37.0085 284.408 36.9717ZM278.847 27.6223C278.839 28.45 278.985 29.272 279.278 30.0473C279.546 30.755 279.944 31.4074 280.453 31.9707C280.946 32.5095 281.544 32.9441 282.212 33.2484C282.901 33.5563 283.648 33.7155 284.405 33.7155C285.161 33.7155 285.909 33.5563 286.598 33.2484C287.274 32.9429 287.878 32.5006 288.37 31.9501C288.881 31.3825 289.279 30.7254 289.545 30.0129C290.115 28.4595 290.115 26.7577 289.545 25.2043C289.279 24.4855 288.881 23.8216 288.37 23.2465C287.876 22.6979 287.273 22.2559 286.598 21.9481C285.912 21.6354 285.164 21.4759 284.408 21.481C283.659 21.4782 282.92 21.6451 282.246 21.9688C281.573 22.2824 280.973 22.7289 280.481 23.2808C279.966 23.8568 279.561 24.5201 279.285 25.2386C278.985 25.9982 278.832 26.8068 278.834 27.6223H278.847Z" fill="#1070B0"/>
<path d="M308 21.8036C306.587 21.8254 305.198 22.176 303.948 22.8272C302.809 23.4239 301.919 24.3963 301.431 25.575V36.628H297.504V18.5475H301.146V22.5936C301.737 21.4148 302.599 20.389 303.663 19.5985C304.631 18.8748 305.794 18.4495 307.006 18.3758H307.59C307.726 18.3643 307.864 18.3643 308 18.3758V21.8036Z" fill="#1070B0"/>
<path d="M52.9528 17.1737L42.9364 0H14.3121L7.79199 11.156L12.7064 13.9588C14.1906 11.4182 16.3255 9.30869 18.8965 7.84233C21.4674 6.37597 24.3838 5.6045 27.3522 5.60549H29.8893C32.8585 5.60538 35.7754 6.37717 38.3473 7.84338C40.9193 9.30959 43.0557 11.4186 44.5421 13.9588L48.1149 20.0726L52.9528 17.1737Z" fill="url(#paint0_linear_1_1314)"/>
<path d="M40.3161 31.5999L39.8782 32.3555C38.869 34.0927 37.4143 35.5364 35.6607 36.541C33.907 37.5456 31.9165 38.0757 29.8895 38.0778H27.3455C25.3238 38.0755 23.3384 37.5474 21.5887 36.5466C19.839 35.5458 18.3867 34.1074 17.3777 32.3761L22.1391 29.6283C22.6672 30.535 23.4278 31.288 24.3443 31.8114C25.2608 32.3349 26.3008 32.6102 27.3594 32.6097H29.8895C30.9493 32.6114 31.9907 32.3367 32.9085 31.8132C33.8263 31.2897 34.5881 30.536 35.1167 29.6283L35.6311 28.749L40.3161 31.5999Z" fill="url(#paint1_linear_1_1314)"/>
<path d="M35.638 20.2173L35.0472 19.235C34.5418 18.3685 33.8145 17.6489 32.9384 17.1485C32.0623 16.648 31.0683 16.3844 30.0563 16.3841H27.1925C26.1806 16.3844 25.1866 16.648 24.3104 17.1485C23.4343 17.6489 22.707 18.3685 22.2017 19.235L20.7698 21.6874C20.264 22.5531 19.9977 23.5351 19.9977 24.5348C19.9977 25.5344 20.264 26.5164 20.7698 27.3822L15.9875 30.0613C15.0005 28.369 14.481 26.4502 14.481 24.497C14.481 22.5438 15.0005 20.6249 15.9875 18.9327L17.4402 16.4872C18.4273 14.7989 19.8457 13.3963 21.5535 12.4198C23.2613 11.4433 25.1986 10.9271 27.1717 10.9229H30.0702C32.0369 10.9181 33.9705 11.423 35.678 12.3873C37.3856 13.3516 38.8074 14.7415 39.8017 16.4185L40.3508 17.339L35.638 20.2173Z" fill="url(#paint2_linear_1_1314)"/>
<path d="M48.115 28.927L44.4866 35.1714C43.0256 37.6722 40.9256 39.7499 38.3968 41.1966C35.868 42.6433 32.999 43.4082 30.0771 43.4148H27.1924C24.2705 43.4082 21.4015 42.6433 18.8727 41.1966C16.3439 39.7499 14.2439 37.6722 12.7829 35.1714L11.351 32.719C9.89585 30.2184 9.13002 27.3843 9.13002 24.4997C9.13002 21.615 9.89585 18.7809 11.351 16.2803L6.43665 13.4707L0 24.4962L14.3122 48.9997H42.9365L52.946 31.826L48.115 28.927Z" fill="url(#paint3_linear_1_1314)"/>
<defs>
<linearGradient id="paint0_linear_1_1314" x1="2.33544" y1="27.4642" x2="40.4508" y2="3.90697" gradientUnits="userSpaceOnUse">
<stop stop-color="#1070B0"/>
<stop offset="1" stop-color="#5DD987"/>
</linearGradient>
<linearGradient id="paint1_linear_1_1314" x1="12.2548" y1="43.0719" x2="50.0732" y2="19.6964" gradientUnits="userSpaceOnUse">
<stop stop-color="#5DD987"/>
<stop offset="1" stop-color="#1070B0"/>
</linearGradient>
<linearGradient id="paint2_linear_1_1314" x1="181.6" y1="870.811" x2="1342.32" y2="-87.4187" gradientUnits="userSpaceOnUse">
<stop stop-color="#1070B0"/>
<stop offset="1" stop-color="#5DD987"/>
</linearGradient>
<linearGradient id="paint3_linear_1_1314" x1="769.305" y1="2084.1" x2="2964.35" y2="87.0631" gradientUnits="userSpaceOnUse">
<stop stop-color="#1070B0"/>
<stop offset="1" stop-color="#71F48A"/>
</linearGradient>
</defs>
</svg>
